<svg width="640" height="480" xmlns="http://www.w3.org/2000/svg" xmlns:svg="http://www.w3.org/2000/svg">
 <title>leaf</title>
  <defs>
    <clipPath id="svgPath">
      <path fill="#FFFFFF" stroke="#000000" stroke-width="5" d="m256,374c-29.74219,6.01172 -94,14 -146,2c-52,-12 -58,-22 -58,-22c0,0 48,-106 77,-140c29,-34 70,-63 86,-73c16,-10 76,-42 131,-55c55,-13 94,-14 114,-16c20,-2 53.32813,-2.09375 74,2c20.67187,4.09375 34,7 34,7c0,0 -14,87 -31,139c-17,52 -36,84 -53,105c-17,21 -44,42 -59,53c-15,11 -67.39063,32.57031 -91.67187,33.73437c-24.28125,1.16407 -37.32813,-1.10156 -37.32813,-1.73437c0,-0.63281 -1,-44 -1,-44c0,0 -9.25781,3.98828 -39,10z" id="svclipPath id="svgTextPath"_3" stroke-opacity="0"/>
    </clipPath>
  </defs>
</svg>