<?xml version="1.0" encoding="utf-8"?>
<!-- Generator: Adobe Illustrator 22.1.0, SVG Export Plug-In . SVG Version: 6.00 Build 0)  -->
<svg version="1.1" id="Layer_1" xmlns="http://www.w3.org/2000/svg" xmlns:xlink="http://www.w3.org/1999/xlink" x="0px" y="0px"
	 viewBox="0 0 100 100" style="enable-background:new 0 0 100 100;" xml:space="preserve">
<style type="text/css">
	.st0{fill:#AB0033;}
	.st1{fill:#FED16D;}
</style>
<g>
	<circle class="st0" cx="50" cy="50" r="50"/>
	<g>
		<path class="st1" d="M62.8,19.5H42.6h-3.2V21c0.4,0.3,1,0.5,1.5,0.7c0.6,0.2,1.1,0.3,1.7,0.5v6.6h9.8v-6.6h4.9
			c6.3,0,11.5,5.1,11.5,11.5v3.6c0,6.3-5.1,11.5-11.5,11.5h-1.6v2.6h7.1c8.8,0,15.9-7.1,15.9-15.9C78.7,26.6,71.5,19.5,62.8,19.5z"
			/>
		<path class="st1" d="M52.4,77.9v-6.6h-9.8v6.6c-0.5,0.1-1.1,0.3-1.7,0.5c-0.6,0.2-1.1,0.4-1.5,0.7v1.5h3.2h9.8h3.2V79
			c-0.4-0.3-1-0.5-1.5-0.7C53.5,78.1,52.9,78,52.4,77.9z"/>
		<path class="st1" d="M58.2,60.9l-1.8,4.5H34.4V51.3h8.2v10.8h9.8V37.9h-9.8v10.8h-8.2V34.6h22.1l1.8,4.5h1.6
			c0.2-1.1,0.7-3.3,0.8-4.5V32h-4.2h-22h-9.8h-3.2v1.5c0.4,0.3,1,0.5,1.5,0.7c0.6,0.2,1.1,0.3,1.7,0.5v30.8
			c-0.5,0.1-1.1,0.3-1.7,0.5c-0.6,0.2-1.1,0.4-1.5,0.7V68h3.2h9.8h22h4.2v-2.6c-0.1-1.3-0.6-3.4-0.8-4.5H58.2z"/>
	</g>
</g>
</svg>
